<svg width="104" height="31" viewBox="0 0 104 31" fill="none" xmlns="http://www.w3.org/2000/svg">
<path d="M52 30C65.8691 30 78.4608 28.4833 87.616 26.0114C92.1863 24.7774 95.9571 23.2904 98.6088 21.5977C101.213 19.935 103 17.8984 103 15.5C103 13.1016 101.213 11.065 98.6088 9.40229C95.9571 7.70956 92.1863 6.22262 87.616 4.98863C78.4608 2.51674 65.8691 1 52 1C38.1309 1 25.5392 2.51674 16.384 4.98863C11.8137 6.22262 8.0429 7.70956 5.39118 9.40229C2.78654 11.065 1 13.1016 1 15.5C1 17.8984 2.78654 19.935 5.39118 21.5977C8.0429 23.2904 11.8137 24.7774 16.384 26.0114C25.5392 28.4833 38.1309 30 52 30Z" stroke="#27F09E" stroke-opacity="0.5" stroke-width="2"/>
</svg>
