<svg width="104" height="29" viewBox="0 0 104 29" fill="none" xmlns="http://www.w3.org/2000/svg">
<path d="M52 28C65.8643 28 78.4495 26.5961 87.5979 24.309C92.1643 23.1674 95.9307 21.7921 98.5796 20.2264C101.161 18.7003 103 16.7977 103 14.5C103 12.2023 101.161 10.2996 98.5796 8.77357C95.9307 7.20792 92.1643 5.83264 87.5979 4.69102C78.4495 2.40394 65.8643 1 52 1C38.1357 1 25.5504 2.40394 16.4021 4.69102C11.8357 5.83264 8.06927 7.20792 5.42042 8.77357C2.83851 10.2996 1 12.2023 1 14.5C1 16.7977 2.83851 18.7003 5.42042 20.2264C8.06927 21.7921 11.8357 23.1674 16.4021 24.309C25.5504 26.5961 38.1357 28 52 28Z" stroke="#27F09E" stroke-opacity="0.8" stroke-width="2"/>
</svg>
