<svg width="104" height="30" viewBox="0 0 104 30" fill="none" xmlns="http://www.w3.org/2000/svg">
<path d="M52 29C65.8667 29 78.4552 27.5397 87.607 25.1602C92.1754 23.9724 95.944 22.5413 98.5944 20.9121C101.188 19.3175 103 17.3476 103 15C103 12.6524 101.188 10.6825 98.5944 9.0879C95.944 7.45867 92.1754 6.02758 87.607 4.83979C78.4552 2.46033 65.8667 1 52 1C38.1333 1 25.5448 2.46033 16.393 4.83979C11.8246 6.02758 8.05597 7.45867 5.40557 9.0879C2.8115 10.6825 1 12.6524 1 15C1 17.3476 2.8115 19.3175 5.40557 20.9121C8.05597 22.5413 11.8246 23.9724 16.393 25.1602C25.5448 27.5397 38.1333 29 52 29Z" stroke="#27F09E" stroke-opacity="0.2" stroke-width="2"/>
</svg>
