<svg width="104" height="93" viewBox="0 0 104 93" fill="none" xmlns="http://www.w3.org/2000/svg">
<path fill-rule="evenodd" clip-rule="evenodd" d="M52 30C65.9262 30 78.6033 28.5344 87.8586 26.128C92.4713 24.9287 96.3475 23.4672 99.1181 21.764C100.188 21.1064 101.188 20.3521 102 19.4965V74.1231C101.175 73.2813 100.161 72.5469 99.0884 71.9127C96.3208 70.2769 92.4492 68.8731 87.8404 67.7209C78.592 65.4088 65.9214 64 52 64C38.0786 64 25.408 65.4088 16.1596 67.7209C11.5508 68.8731 7.67916 70.2769 4.91159 71.9127C3.8387 72.5469 2.82486 73.2813 2 74.1231L2 19.4965C2.81249 20.3521 3.81203 21.1064 4.88189 21.764C7.65255 23.4672 11.5287 24.9287 16.1414 26.128C25.3967 28.5344 38.0738 30 52 30ZM103.977 78C103.992 78.1642 104 78.3309 104 78.5C104 81.3695 101.722 83.5306 99.0884 85.0873C96.3208 86.7231 92.4492 88.1269 87.8404 89.2791C78.592 91.5912 65.9214 93 52 93C38.0786 93 25.408 91.5912 16.1596 89.2791C11.5508 88.1269 7.67916 86.7231 4.91159 85.0873C2.27791 83.5306 2.69193e-06 81.3695 2.69193e-06 78.5C2.69193e-06 78.3309 0.00791498 78.1642 0.0233461 78H0L2.69193e-06 15C2.69193e-06 12.0998 2.2239 9.86988 4.88189 8.23598C7.65255 6.53283 11.5287 5.07127 16.1414 3.87197C25.3967 1.46558 38.0738 0 52 0C65.9262 0 78.6033 1.46558 87.8586 3.87197C92.4713 5.07127 96.3475 6.53283 99.1181 8.23598C101.776 9.86988 104 12.0998 104 15V78H103.977ZM102 15C102 22.1797 79.6142 28 52 28C24.3858 28 2 22.1797 2 15C2 7.8203 24.3858 2 52 2C79.6142 2 102 7.8203 102 15ZM52 91C79.6142 91 102 85.4036 102 78.5C102 71.5964 79.6142 66 52 66C24.3858 66 2 71.5964 2 78.5C2 85.4036 24.3858 91 52 91Z" fill="#27F09E"/>
</svg>
