<svg width="40" height="40" viewBox="0 0 40 40" fill="none" xmlns="http://www.w3.org/2000/svg">
<circle cx="20" cy="20" r="20" fill="#080A16" fill-opacity="0.5"/>
<path fill-rule="evenodd" clip-rule="evenodd" d="M15.3042 27.4999L18.1645 28.1963V27.2856L18.398 27.0713H20.0324V28.1427V28.8927H18.2813L16.1214 28.0356L15.3042 27.4999Z" fill="#CDBDB2"/>
<path fill-rule="evenodd" clip-rule="evenodd" d="M24.6438 27.4999L21.8419 28.1963V27.2856L21.6084 27.0713H19.974V28.1427V28.8927H21.7252L23.8849 28.0356L24.6438 27.4999Z" fill="#CDBDB2"/>
<path fill-rule="evenodd" clip-rule="evenodd" d="M18.3978 25.5179L18.1643 27.2857L18.4561 27.0714H21.4915L21.8417 27.2857L21.6082 25.5179L21.1413 25.25L18.8064 25.3036L18.3978 25.5179Z" fill="#393939"/>
<path fill-rule="evenodd" clip-rule="evenodd" d="M16.8218 13.5713L18.2227 16.5713L18.8649 25.3035H21.1414L21.8418 16.5713L23.126 13.5713H16.8218Z" fill="#F89C35"/>
<path fill-rule="evenodd" clip-rule="evenodd" d="M10.6928 20.1606L9.05835 24.4998L13.1444 24.2856H15.7712V22.4106L15.6544 18.5535L15.0707 18.982L10.6928 20.1606Z" fill="#F89D35"/>
<path fill-rule="evenodd" clip-rule="evenodd" d="M13.7866 20.6428L18.5732 20.75L18.0479 23L15.7713 22.4643L13.7866 20.6428Z" fill="#D87C30"/>
<path fill-rule="evenodd" clip-rule="evenodd" d="M13.7866 20.6963L15.7713 22.4106V24.1249L13.7866 20.6963Z" fill="#EA8D3A"/>
<path fill-rule="evenodd" clip-rule="evenodd" d="M15.771 22.4641L18.1059 22.9998L18.8648 25.3034L18.3394 25.5713L15.771 24.1784V22.4641Z" fill="#F89D35"/>
<path fill-rule="evenodd" clip-rule="evenodd" d="M15.7712 24.1785L15.3042 27.4999L18.398 25.5178L15.7712 24.1785Z" fill="#EB8F35"/>
<path fill-rule="evenodd" clip-rule="evenodd" d="M18.573 20.75L18.8649 25.3036L17.9893 22.9732L18.573 20.75Z" fill="#EA8E3A"/>
<path fill-rule="evenodd" clip-rule="evenodd" d="M13.0859 24.2321L15.7711 24.1785L15.3041 27.4999L13.0859 24.2321Z" fill="#D87C30"/>
<path fill-rule="evenodd" clip-rule="evenodd" d="M10.3425 28.9465L15.3042 27.5L13.086 24.2322L9.05835 24.5L10.3425 28.9465Z" fill="#EB8F35"/>
<path fill-rule="evenodd" clip-rule="evenodd" d="M18.2229 16.5713L15.713 18.4999L13.7866 20.6427L18.5732 20.8035L18.2229 16.5713Z" fill="#E8821E"/>
<path fill-rule="evenodd" clip-rule="evenodd" d="M15.3042 27.4999L18.398 25.5178L18.1645 27.2321V28.1964L16.0631 27.8213L15.3042 27.4999Z" fill="#DFCEC3"/>
<path fill-rule="evenodd" clip-rule="evenodd" d="M24.6438 27.4999L21.6084 25.5178L21.8419 27.2321V28.1964L23.9433 27.8213L24.6438 27.4999Z" fill="#DFCEC3"/>
<path fill-rule="evenodd" clip-rule="evenodd" d="M17.2888 21.7141L17.9309 22.9463L15.6543 22.4106L17.2888 21.7141Z" fill="#393939"/>
<path fill-rule="evenodd" clip-rule="evenodd" d="M10.2839 11.0535L18.2226 16.5713L16.8801 13.5713L10.2839 11.0535Z" fill="#E88F35"/>
<path fill-rule="evenodd" clip-rule="evenodd" d="M10.2841 11.0535L9.2334 13.9999L9.81712 17.2142L9.40852 17.4285L9.99224 17.9106L9.52526 18.2856L10.1674 18.8213L9.75875 19.1428L10.6927 20.2142L15.0707 18.982C17.211 17.4106 18.2617 16.607 18.2228 16.5713C18.1839 16.5356 15.5376 14.6963 10.2841 11.0535Z" fill="#8E5A30"/>
<path fill-rule="evenodd" clip-rule="evenodd" d="M29.2552 20.1606L30.8896 24.4998L26.8036 24.2856H24.1768V22.4106L24.2936 18.5535L24.8773 18.982L29.2552 20.1606Z" fill="#F89D35"/>
<path fill-rule="evenodd" clip-rule="evenodd" d="M26.1614 20.6428L21.3748 20.75L21.9001 23L24.1767 22.4643L26.1614 20.6428Z" fill="#D87C30"/>
<path fill-rule="evenodd" clip-rule="evenodd" d="M26.1614 20.6963L24.1767 22.4106V24.1249L26.1614 20.6963Z" fill="#EA8D3A"/>
<path fill-rule="evenodd" clip-rule="evenodd" d="M24.177 22.4641L21.8421 22.9998L21.0832 25.3034L21.6086 25.5713L24.177 24.1784V22.4641Z" fill="#F89D35"/>
<path fill-rule="evenodd" clip-rule="evenodd" d="M24.1768 24.1785L24.6438 27.4999L21.6084 25.5713L24.1768 24.1785Z" fill="#EB8F35"/>
<path fill-rule="evenodd" clip-rule="evenodd" d="M21.375 20.75L21.0831 25.3036L21.9587 22.9732L21.375 20.75Z" fill="#EA8E3A"/>
<path fill-rule="evenodd" clip-rule="evenodd" d="M26.8621 24.2321L24.1769 24.1785L24.6439 27.4999L26.8621 24.2321Z" fill="#D87C30"/>
<path fill-rule="evenodd" clip-rule="evenodd" d="M29.6055 28.9465L24.6438 27.5L26.862 24.2322L30.8896 24.5L29.6055 28.9465Z" fill="#EB8F35"/>
<path fill-rule="evenodd" clip-rule="evenodd" d="M21.7251 16.5713L24.235 18.4999L26.1614 20.6427L21.3748 20.8035L21.7251 16.5713Z" fill="#E8821E"/>
<path fill-rule="evenodd" clip-rule="evenodd" d="M22.6592 21.7141L22.0171 22.9463L24.2937 22.4106L22.6592 21.7141Z" fill="#393939"/>
<path fill-rule="evenodd" clip-rule="evenodd" d="M29.6641 11.0535L21.7254 16.5713L23.0679 13.5713L29.6641 11.0535Z" fill="#E88F35"/>
<path fill-rule="evenodd" clip-rule="evenodd" d="M29.6639 11.0535L30.7146 13.9999L30.1309 17.2142L30.5395 17.4285L29.9558 17.9106L30.4227 18.2856L29.7806 18.8213L30.1892 19.1428L29.2553 20.2142L24.8773 18.982C22.737 17.4106 21.6863 16.607 21.7252 16.5713C21.7641 16.5356 24.4104 14.6963 29.6639 11.0535Z" fill="#8E5A30"/>
</svg>
