<svg width="48" height="48" viewBox="0 0 48 48" fill="none" xmlns="http://www.w3.org/2000/svg">
<circle cx="24" cy="24" r="24" fill="#080A16" fill-opacity="0.5"/>
<path fill-rule="evenodd" clip-rule="evenodd" d="M15.804 37.0908L20.7965 38.3065V36.7168L21.204 36.3428H24.0569V38.2129V39.522H21.0003L17.2304 38.0259L15.804 37.0908Z" fill="#CDBDB2"/>
<path fill-rule="evenodd" clip-rule="evenodd" d="M32.1055 37.0908L27.2149 38.3065V36.7168L26.8074 36.3428H23.9545V38.2129V39.522H27.0111L30.7808 38.0259L32.1055 37.0908Z" fill="#CDBDB2"/>
<path fill-rule="evenodd" clip-rule="evenodd" d="M21.2034 33.6312L20.7959 36.7168L21.3052 36.3428H26.6034L27.2147 36.7168L26.8071 33.6312L25.992 33.1636L21.9166 33.2572L21.2034 33.6312Z" fill="#393939"/>
<path fill-rule="evenodd" clip-rule="evenodd" d="M18.4524 12.7791L20.8977 18.0154L22.0185 33.2571H25.992L27.2147 18.0154L29.4562 12.7791H18.4524Z" fill="#F89C35"/>
<path fill-rule="evenodd" clip-rule="evenodd" d="M7.75444 24.28L4.90161 31.854L12.0337 31.48H16.6185V28.2073L16.4147 21.4749L15.3959 22.2229L7.75444 24.28Z" fill="#F89D35"/>
<path fill-rule="evenodd" clip-rule="evenodd" d="M13.1548 25.1218L21.5095 25.3088L20.5926 29.2361L16.6189 28.3011L13.1548 25.1218Z" fill="#D87C30"/>
<path fill-rule="evenodd" clip-rule="evenodd" d="M13.1548 25.2153L16.6189 28.2075V31.1997L13.1548 25.2153Z" fill="#EA8D3A"/>
<path fill-rule="evenodd" clip-rule="evenodd" d="M16.6184 28.3008L20.6939 29.2358L22.0185 33.2567L21.1014 33.7242L16.6184 31.293V28.3008Z" fill="#F89D35"/>
<path fill-rule="evenodd" clip-rule="evenodd" d="M16.619 31.2935L15.804 37.0909L21.204 33.6312L16.619 31.2935Z" fill="#EB8F35"/>
<path fill-rule="evenodd" clip-rule="evenodd" d="M21.5091 25.3091L22.0186 33.2572L20.4902 29.1896L21.5091 25.3091Z" fill="#EA8E3A"/>
<path fill-rule="evenodd" clip-rule="evenodd" d="M11.9321 31.387L16.6189 31.2935L15.8038 37.0909L11.9321 31.387Z" fill="#D87C30"/>
<path fill-rule="evenodd" clip-rule="evenodd" d="M7.14312 39.6158L15.8034 37.091L11.9317 31.3872L4.90161 31.8547L7.14312 39.6158Z" fill="#EB8F35"/>
<path fill-rule="evenodd" clip-rule="evenodd" d="M20.8982 18.0151L16.5171 21.3814L13.1548 25.1216L21.5095 25.4022L20.8982 18.0151Z" fill="#E8821E"/>
<path fill-rule="evenodd" clip-rule="evenodd" d="M15.804 37.0908L21.204 33.6311L20.7965 36.6233V38.3064L17.1286 37.6518L15.804 37.0908Z" fill="#DFCEC3"/>
<path fill-rule="evenodd" clip-rule="evenodd" d="M32.1055 37.0908L26.8074 33.6311L27.2149 36.6233V38.3064L30.8828 37.6518L32.1055 37.0908Z" fill="#DFCEC3"/>
<path fill-rule="evenodd" clip-rule="evenodd" d="M19.2678 26.9917L20.3887 29.1424L16.415 28.2074L19.2678 26.9917Z" fill="#393939"/>
<path fill-rule="evenodd" clip-rule="evenodd" d="M7.04102 8.38428L20.8976 18.0154L18.5543 12.779L7.04102 8.38428Z" fill="#E88F35"/>
<path fill-rule="evenodd" clip-rule="evenodd" d="M7.04124 8.38428L5.20728 13.5271L6.22614 19.1375L5.51294 19.5116L6.5318 20.3531L5.71671 21.0077L6.83746 21.9427L6.12426 22.5038L7.75445 24.3739L15.396 22.2232C19.1318 19.4804 20.9658 18.0778 20.8978 18.0154C20.8299 17.9531 16.211 14.7427 7.04124 8.38428Z" fill="#8E5A30"/>
<path fill-rule="evenodd" clip-rule="evenodd" d="M40.1545 24.28L43.0073 31.854L35.8752 31.48H31.2904V28.2073L31.4942 21.4749L32.5131 22.2229L40.1545 24.28Z" fill="#F89D35"/>
<path fill-rule="evenodd" clip-rule="evenodd" d="M34.7544 25.1218L26.3997 25.3088L27.3166 29.2361L31.2902 28.3011L34.7544 25.1218Z" fill="#D87C30"/>
<path fill-rule="evenodd" clip-rule="evenodd" d="M34.7544 25.2153L31.2902 28.2075V31.1997L34.7544 25.2153Z" fill="#EA8D3A"/>
<path fill-rule="evenodd" clip-rule="evenodd" d="M31.2905 28.3008L27.2151 29.2358L25.8904 33.2567L26.8075 33.7242L31.2905 31.293V28.3008Z" fill="#F89D35"/>
<path fill-rule="evenodd" clip-rule="evenodd" d="M31.2904 31.2935L32.1055 37.0909L26.8074 33.7246L31.2904 31.2935Z" fill="#EB8F35"/>
<path fill-rule="evenodd" clip-rule="evenodd" d="M26.3998 25.3091L25.8903 33.2572L27.4187 29.1896L26.3998 25.3091Z" fill="#EA8E3A"/>
<path fill-rule="evenodd" clip-rule="evenodd" d="M35.9775 31.387L31.2907 31.2935L32.1058 37.0909L35.9775 31.387Z" fill="#D87C30"/>
<path fill-rule="evenodd" clip-rule="evenodd" d="M40.7658 39.6158L32.1055 37.091L35.9772 31.3872L43.0073 31.8547L40.7658 39.6158Z" fill="#EB8F35"/>
<path fill-rule="evenodd" clip-rule="evenodd" d="M27.0112 18.0151L31.3923 21.3814L34.7546 25.1216L26.3999 25.4022L27.0112 18.0151Z" fill="#E8821E"/>
<path fill-rule="evenodd" clip-rule="evenodd" d="M28.6414 26.9917L27.5205 29.1424L31.4942 28.2074L28.6414 26.9917Z" fill="#393939"/>
<path fill-rule="evenodd" clip-rule="evenodd" d="M40.8679 8.38428L27.0113 18.0154L29.3546 12.779L40.8679 8.38428Z" fill="#E88F35"/>
<path fill-rule="evenodd" clip-rule="evenodd" d="M40.8677 8.38428L42.7017 13.5271L41.6828 19.1375L42.396 19.5116L41.3771 20.3531L42.1922 21.0077L41.0715 21.9427L41.7847 22.5038L40.1545 24.3739L32.513 22.2232C28.7771 19.4804 26.9432 18.0778 27.0111 18.0154C27.079 17.9531 31.6979 14.7427 40.8677 8.38428Z" fill="#8E5A30"/>
</svg>
