<svg width="12" height="12" viewBox="0 0 12 12" fill="none" xmlns="http://www.w3.org/2000/svg">
<path d="M5.99984 11.8334C2.77964 11.8299 0.17004 9.22029 0.166504 6.00009V5.88343C0.230631 2.67774 2.87001 0.124733 6.07606 0.167272C9.28211 0.209811 11.8528 2.83194 11.8319 6.03821C11.8109 9.24447 9.20617 11.8328 5.99984 11.8334ZM5.9905 10.6668H5.99984C8.57625 10.6642 10.6631 8.57418 10.6618 5.99776C10.6605 3.42134 8.57159 1.33343 5.99517 1.33343C3.41875 1.33343 1.32979 3.42134 1.3285 5.99776C1.32722 8.57418 3.41409 10.6642 5.9905 10.6668ZM6.58317 9.50009H5.4165V8.33342H6.58317V9.50009ZM6.58317 7.75009H5.4165C5.39807 6.9904 5.79342 6.28055 6.449 5.89626C6.834 5.60109 7.1665 5.34676 7.1665 4.83343C7.1665 4.18909 6.64417 3.66676 5.99984 3.66676C5.3555 3.66676 4.83317 4.18909 4.83317 4.83343H3.6665V4.78093C3.67588 3.94731 4.12928 3.18201 4.8559 2.77332C5.58253 2.36464 6.47199 2.37464 7.18924 2.79957C7.90648 3.22451 8.34255 3.99981 8.33317 4.83343C8.2914 5.46285 7.95381 6.03524 7.42317 6.37634C6.9435 6.67745 6.6326 7.1859 6.58317 7.75009Z" fill="white"/>
</svg>
